<svg width="20" height="18" viewBox="0 0 20 18" fill="none" xmlns="http://www.w3.org/2000/svg">
<path d="M15 13.8239C13.65 13.8239 12.8 14.2459 12.05 14.6278C11.4 14.9594 10.87 15.2307 10 15.2307C9.1 15.2307 8.6 14.9795 7.95 14.6278C7.2 14.2459 6.38 13.8239 5 13.8239C3.62 13.8239 2.8 14.2459 2.05 14.6278C1.62 14.8488 1.24 15.0398 0.78 15.1503C0.33 15.2508 0 15.6125 0 16.0647V16.1652C0 16.7682 0.56 17.2003 1.14 17.0797C1.88 16.9289 2.44 16.6476 2.95 16.3863C3.6 16.0547 4.12 15.7834 5 15.7834C5.88 15.7834 6.4 16.0346 7.05 16.3863C7.8 16.7682 8.62 17.1902 10 17.1902C11.38 17.1902 12.2 16.7682 12.95 16.3863C13.6 16.0547 14.13 15.7834 15 15.7834C15.9 15.7834 16.4 16.0346 17.05 16.3863C17.57 16.6476 18.13 16.939 18.88 17.0897C19.0151 17.1162 19.1543 17.1126 19.2879 17.0791C19.4214 17.0455 19.546 16.983 19.6528 16.8957C19.7597 16.8085 19.8461 16.6988 19.9061 16.5743C19.9661 16.4498 19.9982 16.3136 20 16.1753V16.0848C20 15.6226 19.66 15.2608 19.21 15.1604C18.75 15.0599 18.38 14.8689 17.95 14.6378C17.2 14.2459 16.35 13.8239 15 13.8239ZM15 9.35213C13.65 9.35213 12.8 9.78423 12.05 10.156C11.4 10.4776 10.87 10.759 10 10.759C9.1 10.759 8.6 10.5077 7.95 10.156C7.2 9.77418 6.38 9.35213 5 9.35213C3.62 9.35213 2.8 9.78423 2.05 10.156C1.62 10.3671 1.24 10.568 0.77 10.6786C0.33 10.7791 0 11.1408 0 11.593V11.6935C5.71478e-05 11.8324 0.0309224 11.9695 0.0903506 12.0949C0.149779 12.2203 0.236275 12.3308 0.343549 12.4184C0.450822 12.506 0.576174 12.5685 0.710487 12.6013C0.8448 12.634 0.984697 12.6363 1.12 12.608C1.87 12.4572 2.43 12.1658 2.95 11.9146C3.6 11.5629 4.1 11.3117 5 11.3117C5.9 11.3117 6.4 11.5629 7.05 11.9146C7.8 12.2964 8.62 12.7185 10 12.7185C11.38 12.7185 12.2 12.2864 12.95 11.9146C13.6 11.5629 14.1 11.3117 15 11.3117C15.9 11.3117 16.4 11.5629 17.05 11.9146C17.57 12.1759 18.13 12.4673 18.88 12.618C19.0159 12.6446 19.156 12.6408 19.2903 12.6067C19.4245 12.5726 19.5497 12.5091 19.6567 12.4208C19.7637 12.3325 19.8499 12.2215 19.9093 12.0957C19.9686 11.97 19.9996 11.8327 20 11.6935V11.6031C20 11.1408 19.66 10.7791 19.21 10.6786C18.75 10.5781 18.38 10.3872 17.95 10.156C17.2 9.77418 16.35 9.35213 15 9.35213ZM17.95 1.23268C17.2 0.850823 16.37 0.428772 15 0.428772C13.63 0.428772 12.8 0.850823 12.05 1.23268C11.4 1.55424 10.87 1.83561 10 1.83561C9.1 1.83561 8.6 1.58439 7.95 1.23268C7.2 0.860871 6.38 0.428772 5 0.428772C3.62 0.428772 2.8 0.850823 2.05 1.23268C1.62 1.45375 1.24 1.64468 0.78 1.75522C0.33 1.85571 0 2.21746 0 2.66966V2.74C0 3.34293 0.54 3.78508 1.12 3.66449C1.87 3.51376 2.43 3.22235 2.95 2.97113C3.6 2.63951 4.12 2.3682 5 2.3682C5.88 2.3682 6.4 2.61942 7.05 2.97113C7.8 3.35298 8.62 3.77503 10 3.77503C11.38 3.77503 12.2 3.34293 12.95 2.97113C13.6 2.64956 14.13 2.3682 15 2.3682C15.9 2.3682 16.4 2.61942 17.05 2.97113C17.57 3.23239 18.13 3.52381 18.88 3.67454C19.0159 3.70119 19.156 3.69733 19.2903 3.66324C19.4245 3.62915 19.5497 3.56567 19.6567 3.47734C19.7637 3.38901 19.8499 3.27802 19.9093 3.15229C19.9686 3.02656 19.9996 2.88921 20 2.75005V2.65961C20 2.19737 19.66 1.83561 19.21 1.73512C18.75 1.63463 18.38 1.45375 17.95 1.23268ZM15 4.8804C13.65 4.8804 12.8 5.3125 12.05 5.68431C11.4 6.03602 10.9 6.28724 10 6.28724C9.1 6.28724 8.6 6.03602 7.95 5.68431C7.2 5.30245 6.38 4.8804 5 4.8804C3.62 4.8804 2.8 5.3125 2.05 5.68431C1.62 5.91543 1.25 6.10636 0.79 6.20685C0.34 6.30734 0 6.66909 0 7.13134V7.22178C5.71478e-05 7.36067 0.0309224 7.49781 0.0903506 7.62321C0.149779 7.74861 0.236275 7.85912 0.343549 7.9467C0.450822 8.03429 0.576174 8.09674 0.710487 8.12953C0.8448 8.16231 0.984697 8.1646 1.12 8.13622C1.87 7.98549 2.43 7.69407 2.95 7.44285C3.6 7.12129 4.13 6.83992 5 6.83992C5.87 6.83992 6.4 7.09114 7.05 7.44285C7.8 7.82471 8.62 8.24676 10 8.24676C11.38 8.24676 12.2 7.81466 12.95 7.44285C13.6 7.12129 14.13 6.83992 15 6.83992C15.9 6.83992 16.4 7.09114 17.05 7.44285C17.57 7.70412 18.13 7.99554 18.88 8.14627C19.0151 8.17277 19.1543 8.16913 19.2879 8.13561C19.4214 8.10209 19.546 8.03951 19.6528 7.95229C19.7597 7.86506 19.8461 7.75533 19.9061 7.63084C19.9661 7.50635 19.9982 7.37013 20 7.23183V7.14139C20 6.67914 19.66 6.31738 19.21 6.2169C18.75 6.11641 18.38 5.92548 17.95 5.69436C17.2 5.30245 16.35 4.8804 15 4.8804Z" fill="url(#paint0_linear_21_720)"/>
<defs>
<linearGradient id="paint0_linear_21_720" x1="10" y1="0.428772" x2="10" y2="17.1902" gradientUnits="userSpaceOnUse">
<stop stop-color="#FFBF00"/>
<stop offset="1" stop-color="#F2A50C"/>
</linearGradient>
</defs>
</svg>
