<svg width="28" height="22" viewBox="0 0 28 22" fill="none" xmlns="http://www.w3.org/2000/svg">
<path d="M23.9463 8.33334C23.8147 8.52771 23.7368 8.75335 23.7205 8.98746C23.7041 9.22158 23.7498 9.45587 23.8529 9.66667C24.1836 10.4387 24.4169 11.2493 24.5463 12.08C24.8895 14.2269 24.5685 16.4273 23.6263 18.3867C23.5118 18.6016 23.3407 18.7811 23.1316 18.9056C22.9224 19.0302 22.6831 19.0951 22.4396 19.0933H5.57293C5.32809 19.0938 5.08784 19.0269 4.87852 18.8999C4.6692 18.7729 4.49889 18.5907 4.38626 18.3733C3.53277 16.6419 3.16512 14.7113 3.32251 12.7874C3.4799 10.8635 4.15643 9.01835 5.27997 7.44867C6.40352 5.87899 7.93197 4.64362 9.70237 3.87426C11.4728 3.1049 13.4188 2.8304 15.3329 3.08C16.3014 3.19384 17.2488 3.44526 18.1463 3.82667C18.3571 3.92983 18.5914 3.97553 18.8255 3.95914C19.0596 3.94275 19.2852 3.86486 19.4796 3.73334C19.6821 3.59993 19.8444 3.41382 19.949 3.19504C20.0536 2.97626 20.0965 2.73309 20.0732 2.49172C20.0499 2.25034 19.9612 2.01989 19.8167 1.82518C19.6721 1.63046 19.4772 1.47886 19.2529 1.38667C16.6772 0.282214 13.8189 0.0174549 11.0841 0.630002C8.34936 1.24255 5.87712 2.70126 4.0186 4.79891C2.16009 6.89657 1.0098 9.52652 0.73113 12.3152C0.452462 15.1038 1.05959 17.9094 2.46626 20.3333C2.69894 20.7364 3.03305 21.0715 3.43537 21.3054C3.83769 21.5393 4.29423 21.6639 4.7596 21.6667H23.2263C23.6962 21.6685 24.1582 21.5462 24.5656 21.3121C24.973 21.0779 25.3113 20.7403 25.5463 20.3333C26.5761 18.5486 27.1783 16.5494 27.3055 14.4928C27.4328 12.4362 27.0816 10.3781 26.2796 8.48001C26.178 8.26368 26.0202 8.07864 25.8226 7.94424C25.625 7.80983 25.3949 7.73101 25.1563 7.71602C24.9178 7.70103 24.6797 7.75042 24.4668 7.85902C24.2539 7.96762 24.0741 8.13144 23.9463 8.33334Z" fill="url(#paint0_linear_29_122)"/>
<defs>
<linearGradient id="paint0_linear_29_122" x1="13.998" y1="0.307617" x2="13.998" y2="21.6667" gradientUnits="userSpaceOnUse">
<stop stop-color="#FFBF00"/>
<stop offset="1" stop-color="#F2A50C"/>
</linearGradient>
</defs>
</svg>
