<svg width="30" height="30" viewBox="0 0 30 30" fill="none" xmlns="http://www.w3.org/2000/svg">
<path d="M14.9997 9.66671C12.053 9.66671 9.66634 12.0534 9.66634 15C9.66634 17.9467 12.053 20.3334 14.9997 20.3334C17.9463 20.3334 20.333 17.9467 20.333 15C20.333 12.0534 17.9463 9.66671 14.9997 9.66671ZM26.9197 13.6667C26.6177 10.9629 25.4052 8.44209 23.4814 6.5183C21.5576 4.59451 19.0368 3.38206 16.333 3.08004V1.66671C16.333 0.933374 15.733 0.333374 14.9997 0.333374C14.2663 0.333374 13.6663 0.933374 13.6663 1.66671V3.08004C10.9625 3.38206 8.44172 4.59451 6.51793 6.5183C4.59414 8.44209 3.38169 10.9629 3.07967 13.6667H1.66634C0.933008 13.6667 0.333008 14.2667 0.333008 15C0.333008 15.7334 0.933008 16.3334 1.66634 16.3334H3.07967C3.38169 19.0372 4.59414 21.558 6.51793 23.4818C8.44172 25.4056 10.9625 26.618 13.6663 26.92V28.3334C13.6663 29.0667 14.2663 29.6667 14.9997 29.6667C15.733 29.6667 16.333 29.0667 16.333 28.3334V26.92C19.0368 26.618 21.5576 25.4056 23.4814 23.4818C25.4052 21.558 26.6177 19.0372 26.9197 16.3334H28.333C29.0663 16.3334 29.6663 15.7334 29.6663 15C29.6663 14.2667 29.0663 13.6667 28.333 13.6667H26.9197ZM14.9997 24.3334C9.83967 24.3334 5.66634 20.16 5.66634 15C5.66634 9.84004 9.83967 5.66671 14.9997 5.66671C20.1597 5.66671 24.333 9.84004 24.333 15C24.333 20.16 20.1597 24.3334 14.9997 24.3334Z" fill="url(#paint0_linear_29_116)"/>
<defs>
<linearGradient id="paint0_linear_29_116" x1="14.9997" y1="0.333374" x2="14.9997" y2="29.6667" gradientUnits="userSpaceOnUse">
<stop stop-color="#FFBF00"/>
<stop offset="1" stop-color="#F2A50C"/>
</linearGradient>
</defs>
</svg>
