<svg width="24" height="25" viewBox="0 0 24 25" fill="none" xmlns="http://www.w3.org/2000/svg">
<path d="M19.4599 10.1551C19.3613 10.3016 19.3029 10.4716 19.2906 10.6481C19.2783 10.8245 19.3126 11.0011 19.3899 11.1599C19.6379 11.7418 19.8129 12.3527 19.9099 12.9788C20.1674 14.5968 19.9266 16.2552 19.2199 17.7319C19.1341 17.8939 19.0058 18.0291 18.8489 18.123C18.692 18.2169 18.5125 18.2658 18.3299 18.2645H5.67994C5.49631 18.2649 5.31613 18.2144 5.15913 18.1187C5.00214 18.023 4.87441 17.8857 4.78994 17.7218C4.14982 16.4169 3.87408 14.9619 3.99213 13.5119C4.11017 12.062 4.61756 10.6713 5.46022 9.48832C6.30288 8.30531 7.44922 7.37426 8.77702 6.79443C10.1048 6.21459 11.5643 6.00771 12.9999 6.19583C13.7263 6.28162 14.4368 6.47111 15.1099 6.75856C15.268 6.83631 15.4438 6.87075 15.6193 6.8584C15.7949 6.84605 15.9642 6.78735 16.1099 6.68822C16.2618 6.58768 16.3835 6.44741 16.462 6.28252C16.5404 6.11764 16.5727 5.93437 16.5552 5.75246C16.5377 5.57054 16.4712 5.39686 16.3628 5.25011C16.2543 5.10336 16.1082 4.9891 15.9399 4.91963C14.0081 4.08724 11.8644 3.8877 9.81335 4.34935C7.76226 4.81101 5.90808 5.91038 4.5142 7.4913C3.12031 9.07223 2.25759 11.0543 2.04859 13.156C1.83959 15.2577 2.29493 17.3722 3.34994 19.199C3.52445 19.5028 3.77503 19.7553 4.07677 19.9316C4.37852 20.1079 4.72092 20.2018 5.06994 20.2039H18.9199C19.2724 20.2053 19.6189 20.1131 19.9244 19.9366C20.23 19.7602 20.4837 19.5057 20.6599 19.199C21.4323 17.8539 21.884 16.3472 21.9794 14.7972C22.0748 13.2472 21.8114 11.6961 21.2099 10.2656C21.1338 10.1026 21.0154 9.96311 20.8672 9.86182C20.719 9.76052 20.5464 9.70112 20.3675 9.68982C20.1886 9.67852 20.01 9.71574 19.8503 9.79759C19.6907 9.87944 19.5558 10.0029 19.4599 10.1551Z" fill="url(#paint0_linear_21_721)"/>
<path d="M10.59 12.7578C10.2147 13.1349 10.0039 13.6464 10.0039 14.1797C10.0039 14.4437 10.0557 14.7052 10.1562 14.9492C10.2568 15.1932 10.4042 15.4149 10.59 15.6016C10.7758 15.7883 10.9964 15.9364 11.2392 16.0375C11.482 16.1385 11.7422 16.1906 12.005 16.1906C12.5357 16.1906 13.0447 15.9787 13.42 15.6016L19.08 7.07013L10.59 12.7578Z" fill="url(#paint1_linear_21_721)"/>
<defs>
<linearGradient id="paint0_linear_21_721" x1="11.9987" y1="4.10638" x2="11.9987" y2="20.2039" gradientUnits="userSpaceOnUse">
<stop stop-color="#FFBF00"/>
<stop offset="1" stop-color="#F2A50C"/>
</linearGradient>
<linearGradient id="paint1_linear_21_721" x1="14.542" y1="7.07013" x2="14.542" y2="16.1906" gradientUnits="userSpaceOnUse">
<stop stop-color="#FFBF00"/>
<stop offset="1" stop-color="#F2A50C"/>
</linearGradient>
</defs>
</svg>
